<svg xmlns="http://www.w3.org/2000/svg" fill="none" viewBox="0 0 370 32" height="32" width="370">
<path fill="#052C5E" d="M139.221 14.5959H135.587V8.01633H139.221C141.747 8.01633 143.279 8.99592 143.279 11.2653C143.279 13.551 141.747 14.5959 139.221 14.5959ZM151.9 10.7429C151.9 5.43674 148.445 0.669388 140.345 0.669388H127.276V31.3306H135.587V19.951L143.458 31.3306H153.823L145.332 19.951C149.846 18.449 151.9 14.8245 151.9 10.7429ZM202.81 17.1429H202.728L188.29 0.669388H181.82V31.3306H190.131V14.8571H190.213L204.651 31.3306H211.121V0.669388H202.81V17.1429ZM241.302 31.3306H249.613V0.669388H241.302V31.3306ZM82.1832 25.6C76.8868 25.6 72.5846 21.3061 72.5846 16C72.5846 10.6939 76.8868 6.4 82.1832 6.4C83.8617 6.4 85.4262 6.84081 86.8114 7.59184L81.7921 13.2735L85.2632 16.3429L90.2011 10.7592C91.1952 12.2612 91.7655 14.0571 91.7655 16C91.7655 21.3061 87.4633 25.6 82.1832 25.6ZM82.1832 0C73.3831 0 66.2126 7.18367 66.2126 16C66.2126 24.8163 73.3831 32 82.1832 32C90.9833 32 98.1375 24.8163 98.1375 16C98.1375 7.18367 90.9833 0 82.1832 0ZM26.2862 0.669388L20.5499 14.0245H20.501L14.7809 0.669388H8.60455L0 31.3306H8.42529L12.7276 16.049H12.809L17.7958 27.1673H23.2551L28.2418 16.049H28.3396L32.6256 31.3306H41.0672L32.4463 0.669388H26.2862ZM300.784 17.1429H300.703L286.264 0.669388H279.794V31.3306H288.106V14.8571H288.187L302.626 31.3306H309.096V0.669388H300.784V17.1429ZM368.936 13.1592H353.145V20.1633H360.707C360.364 22.2694 358.474 24.0163 354.547 24.0163C348.989 24.0163 346.268 20.4735 346.268 16C346.268 11.2653 349.299 7.98367 354.318 7.98367C356.909 7.98367 359.484 8.84898 361.766 10.7918L366.834 3.95102C363.33 1.40408 359.533 0 354.579 0C343.644 0 337.517 6.84081 337.517 15.951C337.517 25.4694 344.182 32 354.155 32C363.901 32 369.067 25.4694 369.067 16.4898C369.067 15.6082 369.018 14.3347 368.936 13.1592Z"></path>
</svg>
